# xmcd
#
# Track frame offsets: 
#        183
#        15658
#        33758
#        46273
#        61008
#        73358
#        88033
#        105223
#        114708
#        128608
#        141433
#        159283
#        173658
#        187108
#
# Disc length: 2643 seconds
#
# Revision: 1
# Processed by: cddbd v1.5.2PL0 Copyright (c) Steve Scherf et al.
# Submitted via: ExactAudioCopy v1.0b3
#
DISCID=b30a510e
DTITLE=Truck Stop - Country Party
DYEAR=1994
DGENRE=Country
TTITLE0=Square Dance Darling (Square Dance)
TTITLE1=Legenden (Country Waltz)
TTITLE2=Der wilde, wilde Westen (Country Fox)
TTITLE3=Lousianna Ladies (Line Dance)
TTITLE4=I'm A Nut (Country Rock)
TTITLE5=Mein Stiefel kommt in Himmel (Country medium fox)
TTITLE6=Immer noch verrueckt (Country Waltz)
TTITLE7=Foggy Mountains Breakdown (Blue grass)
TTITLE8=Hilly Billy Country Lilly (Square Dance)
TTITLE9=Hello Josephine (Country Rock)
TTITLE10=Wenn es Nacht wird in Old Tucson (Country medium fox)
TTITLE11=Happy Birthday (Country Fox)
TTITLE12=Cowboy bei der Bahn (Square Dance)
TTITLE13=Square Dance (Square Dance)
EXTD=ID3G: 2
EXTT0=
EXTT1=
EXTT2=
EXTT3=
EXTT4=
EXTT5=
EXTT6=
EXTT7=
EXTT8=
EXTT9=
EXTT10=
EXTT11=
EXTT12=
EXTT13=
PLAYORDER=
